<?xml version="1.0" standalone="no"?>
<!DOCTYPE svg PUBLIC "-//W3C//DTD SVG 20010904//EN"
 "http://www.w3.org/TR/2001/REC-SVG-20010904/DTD/svg10.dtd">
<svg version="1.0" xmlns="http://www.w3.org/2000/svg"
 width="1024.000000pt" height="1024.000000pt" viewBox="0 0 1024.000000 1024.000000"
 preserveAspectRatio="xMidYMid meet">
<metadata>
Created by potrace 1.14, written by Peter Selinger 2001-2017
</metadata>
<g transform="translate(0.000000,1024.000000) scale(0.100000,-0.100000)"
fill="#000000" stroke="none">
<path d="M6459 9770 c0 -8 -2 -23 -4 -34 -2 -10 -6 -45 -8 -77 -3 -32 -8 -63
-11 -68 -4 -5 -2 -13 4 -16 7 -4 8 -11 1 -18 -5 -7 -8 -27 -7 -45 1 -18 -1
-35 -5 -38 -4 -2 -6 -16 -4 -32 2 -15 1 -31 -2 -35 -3 -5 -7 -39 -10 -75 -6
-86 -11 -137 -13 -137 -2 0 -6 -35 -14 -130 -3 -33 -6 -60 -6 -60 -1 0 -3 -20
-5 -45 -4 -44 -8 -87 -20 -200 -3 -30 -8 -77 -10 -105 -3 -27 -7 -66 -10 -85
-2 -19 -7 -60 -9 -90 -3 -30 -5 -55 -6 -55 -1 0 -3 -18 -5 -40 -4 -61 -16
-177 -20 -205 -2 -14 -7 -60 -10 -102 -3 -43 -8 -87 -10 -97 -6 -34 -19 -165
-19 -208 -1 -24 -4 -43 -7 -43 -3 0 -5 -18 -5 -40 1 -22 -1 -40 -4 -40 -3 0
-6 -17 -6 -38 -2 -44 -12 -177 -15 -177 0 0 -3 -18 -5 -40 -4 -46 -14 -139
-18 -175 -2 -14 -7 -59 -10 -100 -4 -41 -9 -93 -12 -115 -3 -22 -7 -65 -9 -95
-2 -30 -5 -55 -5 -55 -1 0 -4 -16 -5 -35 -5 -50 -14 -134 -22 -215 -3 -38 -7
-82 -7 -97 -1 -16 -3 -28 -6 -28 -3 0 -5 -15 -6 -33 -1 -30 -8 -107 -19 -207
-3 -25 -7 -72 -10 -105 -6 -66 -12 -117 -19 -185 -9 -76 -18 -163 -21 -200 -2
-19 -4 -35 -5 -35 -1 0 -3 -20 -5 -45 -3 -42 -7 -92 -21 -220 -4 -30 -7 -76
-8 -102 0 -27 -3 -48 -6 -48 -3 0 -6 -17 -7 -37 -2 -42 -7 -101 -18 -180 -3
-28 -8 -79 -10 -112 -2 -33 -5 -64 -8 -68 -2 -4 -4 -24 -4 -44 0 -19 -2 -40
-5 -45 -2 -5 -4 -28 -4 -51 1 -24 -1 -43 -4 -43 -3 0 -6 -21 -8 -48 -3 -58
-10 -137 -12 -137 -2 0 -5 -23 -15 -135 -4 -47 -9 -98 -11 -115 -2 -16 -5 -51
-8 -77 -2 -25 -7 -51 -10 -57 -4 -6 -2 -11 4 -11 7 0 8 -6 2 -17 -6 -10 -10
-31 -10 -48 0 -16 -1 -32 -2 -35 -1 -3 -4 -18 -5 -35 -2 -16 -6 -59 -10 -95
-9 -80 -12 -115 -20 -204 -3 -38 -7 -81 -9 -95 -5 -31 -15 -114 -22 -191 -3
-30 -7 -73 -9 -95 -3 -22 -7 -62 -9 -90 -4 -46 -11 -112 -22 -210 -2 -22 -6
-60 -9 -85 -2 -25 -6 -65 -9 -90 -12 -110 -17 -159 -21 -210 -3 -30 -7 -68
-10 -85 -2 -16 -7 -64 -10 -105 -4 -41 -9 -95 -12 -120 -2 -25 -6 -63 -8 -85
-2 -22 -4 -40 -5 -40 -1 0 -4 -25 -5 -55 -2 -30 -4 -55 -5 -55 -3 0 -7 -40
-15 -130 -3 -44 -8 -96 -10 -115 -11 -88 -19 -161 -32 -285 -3 -33 -6 -77 -7
-97 -1 -21 -3 -38 -6 -38 -3 0 -6 -17 -6 -38 -2 -41 -10 -126 -20 -212 -4 -30
-7 -74 -8 -97 -1 -24 -3 -43 -6 -43 -3 0 -6 -15 -6 -33 -2 -43 -13 -182 -15
-182 -2 0 -12 -90 -24 -233 l-5 -53 40 5 c26 3 40 0 40 -7 0 -8 3 -7 9 1 4 8
12 14 16 14 4 0 12 -6 16 -14 6 -8 12 -9 17 -3 9 12 102 15 102 2 0 -4 5 -5
12 -1 18 12 102 11 111 -1 4 -7 10 -7 15 0 9 12 102 15 102 2 0 -4 6 -5 12 0
17 10 49 10 71 0 9 -4 17 -4 17 1 0 12 70 9 70 -3 0 -7 3 -7 8 0 9 13 175 13
185 0 4 -7 10 -7 15 0 9 12 102 15 102 2 0 -4 6 -5 12 0 17 10 49 10 71 0 9
-4 17 -4 17 1 0 12 70 9 70 -3 0 -7 3 -7 8 0 9 13 175 13 185 0 4 -7 10 -7 15
0 9 12 102 15 102 2 0 -4 5 -5 12 -1 18 12 102 11 111 -1 4 -7 10 -7 15 0 10
14 102 14 102 1 0 -6 4 -5 9 2 4 8 12 14 16 14 4 0 12 -6 16 -14 6 -8 12 -9
17 -3 10 14 102 14 102 1 0 -6 4 -5 9 2 4 8 12 14 16 14 4 0 12 -6 16 -14 6
-8 12 -9 17 -3 10 14 102 14 102 1 0 -6 4 -5 9 2 4 8 12 14 16 14 4 0 12 -6
16 -14 6 -8 12 -9 17 -3 9 12 102 15 102 2 0 -4 5 -5 12 -1 18 12 102 11 111
-1 4 -7 10 -7 15 0 9 12 102 15 102 2 0 -4 6 -5 12 0 17 10 49 10 71 0 9 -4
17 -4 17 1 0 12 70 9 70 -3 0 -7 3 -7 8 0 9 13 175 13 185 0 5 -7 9 -7 15 0 8
12 94 14 102 3 20 -27 44 66 43 165 0 15 2 27 6 27 3 0 6 19 7 43 1 23 4 69 7
102 4 33 10 87 13 120 11 103 12 118 20 190 4 39 7 85 8 103 0 17 3 32 6 32 3
0 5 15 6 33 1 35 11 148 18 212 14 113 19 163 21 195 2 19 4 35 5 35 1 0 3 23
4 50 2 28 7 79 11 115 5 36 9 82 9 102 1 21 3 38 6 38 5 0 11 75 10 128 0 14
4 20 11 16 8 -5 8 -1 0 13 -6 11 -8 22 -6 24 4 5 13 69 19 144 8 94 17 180 22
205 3 14 7 57 10 95 2 39 6 84 8 100 5 37 17 158 21 205 2 19 4 35 5 35 1 0 3
23 5 50 3 28 6 70 9 95 3 25 8 72 11 105 4 33 8 76 10 95 2 19 4 35 5 35 1 0
11 116 12 145 0 8 5 21 11 27 6 9 6 13 -2 13 -7 0 -9 4 -6 10 3 5 8 40 11 77
4 60 10 108 14 108 0 0 3 27 5 60 2 33 7 78 10 100 2 22 8 69 11 105 6 65 7
81 19 200 4 36 8 81 10 100 2 19 4 35 5 35 1 0 3 20 5 45 1 25 3 45 4 45 2 0
4 20 6 45 1 25 6 79 10 120 5 41 8 83 7 93 0 11 4 15 11 10 9 -5 8 -2 0 9 -7
8 -10 17 -7 20 3 3 7 28 10 54 3 27 7 69 10 94 2 25 6 70 9 100 2 30 7 84 11
120 4 36 8 75 8 88 0 12 2 22 6 22 3 0 6 21 6 48 1 44 9 126 20 217 5 41 12
116 19 195 2 25 4 45 5 45 1 0 3 23 6 50 6 62 12 125 19 190 3 28 8 70 10 95
3 25 7 65 9 90 3 25 7 68 10 95 3 28 8 75 11 105 7 57 11 96 19 190 2 30 7 75
10 100 3 25 8 70 11 100 3 30 8 73 10 95 3 22 7 67 10 100 3 33 8 80 10 105 6
51 16 150 20 195 2 17 4 30 5 30 1 0 3 18 5 40 2 41 12 147 20 220 3 22 7 63
10 90 3 28 7 68 10 90 2 22 7 67 10 100 3 33 8 84 11 114 4 30 8 71 9 90 2 20
4 36 5 36 1 0 3 23 5 50 2 28 7 73 10 100 14 140 18 172 20 200 2 17 4 30 4
30 1 0 4 27 6 60 3 33 7 78 9 100 3 22 8 74 12 115 10 108 12 125 14 125 1 0
3 16 5 35 11 126 29 305 40 410 4 30 8 73 10 95 2 22 4 40 5 40 0 0 3 25 6 55
3 30 7 71 9 90 2 19 6 64 10 100 l6 65 -1456 0 c-1293 0 -1455 -1 -1456 -15z"/>
<path d="M2714 9325 c-3 -19 -10 -38 -15 -41 -5 -3 -7 -9 -5 -13 3 -4 -1 -28
-9 -53 -7 -26 -11 -49 -8 -52 4 -3 0 -6 -7 -6 -7 0 -10 -3 -7 -7 4 -3 0 -17
-9 -31 -9 -13 -11 -21 -5 -18 12 8 15 -7 4 -18 -9 -8 -31 -90 -40 -143 -3 -18
-9 -33 -15 -33 -5 0 -7 -4 -4 -8 3 -5 -2 -31 -10 -58 -8 -27 -17 -58 -19 -69
-6 -28 -29 -115 -55 -210 -12 -44 -23 -84 -24 -90 -1 -5 -5 -16 -9 -22 -5 -7
-6 -13 -3 -13 2 0 0 -15 -5 -32 -13 -41 -40 -138 -44 -158 -9 -43 -18 -76 -23
-85 -4 -5 -7 -16 -8 -25 -3 -19 -8 -39 -17 -65 -3 -11 -9 -33 -12 -50 -9 -47
-10 -49 -18 -62 -5 -7 -6 -17 -2 -22 3 -5 0 -15 -7 -23 -7 -7 -15 -28 -16 -47
-2 -19 -9 -46 -14 -60 -6 -14 -10 -34 -9 -43 1 -10 -2 -18 -6 -18 -5 0 -10
-13 -11 -30 -1 -16 -7 -42 -14 -57 -6 -15 -11 -31 -10 -34 1 -4 -3 -22 -9 -40
-12 -38 -38 -135 -45 -161 -7 -32 -15 -63 -18 -73 -2 -5 -6 -23 -11 -40 -4
-16 -10 -34 -14 -40 -3 -5 -6 -14 -6 -20 -2 -37 -18 -95 -26 -95 -6 0 -8 -4
-5 -9 4 -5 2 -21 -4 -35 -9 -24 -7 -26 33 -36 23 -6 47 -12 52 -14 6 -2 13 -4
17 -5 4 -1 38 -11 74 -21 37 -11 71 -17 75 -14 5 3 9 1 9 -3 0 -5 21 -15 48
-22 83 -23 265 -102 295 -128 9 -9 17 -13 17 -9 0 8 153 -95 158 -106 2 -5 8
-8 13 -8 19 0 229 -203 276 -266 19 -26 43 -56 73 -91 6 -7 8 -13 5 -13 -3 0
5 -15 19 -33 15 -19 26 -39 26 -45 0 -6 3 -12 8 -14 4 -1 18 -25 32 -53 14
-27 28 -52 31 -55 4 -3 9 -14 11 -25 1 -11 5 -22 9 -25 10 -9 69 -176 69 -196
0 -11 4 -24 9 -29 9 -10 37 -144 48 -230 6 -44 8 -315 2 -355 -2 -14 -8 -28
-14 -32 -7 -5 -6 -8 1 -8 8 0 9 -11 4 -34 -4 -19 -5 -37 -2 -40 3 -4 0 -6 -7
-6 -7 0 -10 -4 -6 -9 4 -8 -5 -62 -22 -121 -2 -8 -4 -16 -4 -17 0 -2 -7 -22
-15 -45 -9 -24 -17 -50 -19 -58 -2 -8 -4 -16 -5 -17 -2 -2 -3 -6 -5 -10 -11
-39 -106 -235 -122 -251 -7 -7 -13 -17 -13 -22 0 -5 -16 -29 -35 -54 -19 -25
-33 -46 -30 -46 3 0 -3 -8 -12 -18 -10 -10 -38 -43 -63 -73 -62 -75 -230 -237
-230 -222 0 2 -6 -2 -14 -9 -78 -74 -284 -188 -438 -242 -43 -15 -87 -28 -98
-29 -11 -1 -20 -4 -20 -7 0 -4 -6 -7 -12 -8 -7 0 -26 -3 -43 -6 -105 -21 -135
-27 -180 -32 -77 -10 -264 -11 -319 -2 -28 4 -68 8 -90 9 -23 1 -45 5 -51 8
-5 3 -21 7 -35 9 -14 2 -86 19 -160 39 -185 49 -182 49 -196 -12 -6 -27 -17
-62 -23 -77 -6 -16 -8 -28 -6 -28 2 0 0 -11 -5 -25 -5 -14 -12 -36 -15 -48 -4
-20 -22 -89 -29 -112 -1 -5 -6 -27 -11 -47 -4 -21 -10 -38 -14 -38 -3 0 -6
-10 -7 -22 -1 -13 -15 -75 -33 -138 -17 -63 -34 -126 -37 -139 -3 -13 -9 -32
-14 -41 -5 -10 -7 -20 -4 -22 2 -3 -1 -18 -7 -34 -7 -16 -13 -33 -14 -39 -1
-5 -3 -12 -4 -15 -2 -3 -4 -16 -6 -30 -1 -14 -7 -37 -14 -53 -6 -15 -8 -27 -5
-27 4 0 1 -7 -6 -15 -7 -8 -9 -15 -6 -15 4 0 2 -8 -3 -17 -5 -10 -12 -34 -15
-53 -3 -19 -13 -60 -22 -90 -9 -30 -18 -62 -19 -70 -2 -8 -4 -15 -5 -15 -1 0
-3 -7 -5 -15 -1 -8 -8 -35 -15 -60 -7 -25 -14 -52 -16 -60 -2 -8 -11 -42 -19
-75 -9 -33 -18 -68 -20 -78 -2 -9 -6 -21 -9 -25 -3 -5 -8 -22 -11 -38 -14 -69
-16 -78 -23 -88 -3 -6 -7 -17 -8 -26 -4 -31 -68 -265 -73 -270 -3 -3 -7 -14
-8 -25 -2 -33 -13 -77 -24 -97 -5 -10 -7 -18 -5 -18 3 0 -1 -18 -9 -40 -8 -22
-14 -42 -15 -45 0 -3 0 -6 -1 -7 -11 -38 -5 -47 35 -50 14 -1 26 -6 26 -11 0
-5 6 -7 14 -4 8 3 17 3 21 -1 4 -4 11 -8 16 -8 5 -1 10 -2 12 -4 1 -1 16 -4
32 -6 17 -3 37 -7 45 -11 8 -3 17 -7 20 -8 9 -2 64 -15 88 -20 12 -3 32 -8 45
-11 61 -16 105 -25 132 -29 17 -2 32 -4 35 -5 3 -1 10 -3 15 -4 6 -1 24 -5 40
-8 33 -8 95 -18 140 -23 17 -2 50 -6 75 -9 96 -13 129 -16 255 -22 168 -9 291
-8 440 1 144 9 190 13 190 15 0 1 16 3 35 5 58 4 142 15 149 19 3 2 29 7 56
10 28 3 59 8 70 10 11 3 53 12 94 20 41 9 111 26 155 37 45 12 88 23 96 24 8
2 17 4 20 6 3 1 10 3 15 4 6 1 22 7 38 13 15 7 38 14 50 17 12 2 49 14 82 25
33 12 65 23 70 24 6 1 27 10 49 19 21 9 42 17 46 17 4 0 20 6 36 14 16 8 52
24 79 36 103 44 251 115 275 131 14 9 35 20 48 23 12 4 22 11 22 16 0 5 14 11
30 15 17 4 30 11 30 16 0 6 5 7 10 4 6 -3 10 -1 10 4 0 6 7 11 15 11 8 0 15 4
15 9 0 5 8 12 18 15 32 13 62 31 62 38 0 5 5 8 10 8 6 0 58 33 117 73 58 39
118 80 134 90 16 11 29 23 29 28 0 5 5 9 11 9 6 0 34 19 62 43 29 23 63 51 76
62 14 11 40 34 58 50 19 17 48 43 66 59 48 43 217 209 217 213 0 2 17 21 38
41 20 21 63 69 95 107 74 89 70 84 147 185 36 47 68 87 73 88 4 2 7 8 7 13 0
6 19 38 43 72 121 173 295 496 370 687 14 36 31 79 38 95 7 17 13 33 14 38 2
4 3 8 5 10 1 1 3 9 5 17 2 8 16 48 30 89 15 41 28 81 30 90 2 9 12 43 23 76
22 67 57 216 54 228 -1 4 2 7 6 7 4 0 8 8 8 18 1 23 15 105 19 112 2 3 6 24 9
46 4 22 9 51 11 64 11 51 23 146 30 220 2 25 7 83 11 130 13 148 7 562 -10
675 -3 17 -7 55 -10 85 -3 30 -7 66 -10 80 -3 14 -7 42 -10 63 -11 67 -18 109
-22 131 -3 11 -7 30 -9 41 -3 11 -7 31 -10 45 -4 14 -8 36 -11 50 -3 14 -10
43 -16 65 -6 22 -12 47 -13 55 -1 8 -4 22 -7 30 -3 8 -13 42 -23 75 -10 33
-21 65 -24 70 -3 6 -6 15 -6 20 -2 18 -18 69 -34 105 -8 19 -15 37 -16 40 -4
21 -33 96 -56 148 -16 34 -29 65 -29 68 0 2 -17 39 -37 82 -20 42 -38 83 -39
90 -1 7 -7 18 -12 25 -6 7 -27 44 -47 82 -54 102 -69 129 -75 135 -3 3 -19 28
-35 55 -38 66 -116 187 -132 203 -7 7 -13 19 -13 27 0 7 -4 15 -8 17 -5 2 -32
35 -60 73 -62 83 -90 118 -117 149 -11 12 -38 44 -59 70 -80 97 -185 206 -199
206 -6 0 -8 2 -5 5 3 3 -22 32 -56 63 -33 31 -68 64 -76 72 -20 20 -86 76
-140 120 -23 19 -48 40 -54 45 -6 6 -47 37 -91 70 -44 32 -83 64 -87 69 -4 6
-8 7 -8 3 0 -4 -10 1 -22 13 -12 11 -27 20 -34 20 -7 0 -14 4 -16 8 -5 13
-128 94 -128 85 0 -4 -4 -3 -8 2 -8 12 -52 41 -67 45 -5 1 -28 15 -50 30 -76
51 -455 230 -489 230 -8 0 -16 4 -18 8 -2 6 -55 27 -143 56 -11 3 -37 13 -80
29 -16 7 -37 12 -45 13 -8 0 -22 4 -30 7 -24 10 -342 97 -356 97 -7 0 -16 -16
-20 -35z"/>
</g>
</svg>
